<svg width="48" height="45" fill="none" xmlns="http://www.w3.org/2000/svg"><path d="M34.716 26.906L28.1 23.473l11.69-9.23 6.673 3.037-11.746 9.626zm4.507 5.118L27.659 43.242V24.4l6.895 3.577c.173.09.38.068.532-.057l4.137-3.39v7.494zm-30.85-8.01l11.082 6.119a.487.487 0 00.542-.05l6.666-5.454v18.854l-18.29-9.65v-9.818zm-.421-9.471l18.275 9.127-6.591 5.392-18.03-9.955 6.346-4.564zm-6.35-4.245L13.767 2.16l5.976 2.852-11.88 8.342-6.26-3.056zm18.653 9.243l-11.352-5.67L20.255 5.9v13.64zm6.847 3.42l-5.85-2.922V5.72l17.497 8.046-11.647 9.194zm-.665-21.695l18.257 7.958-5.035 3.83-17.915-8.237 4.693-3.551zm21.479 15.82a.515.515 0 00-.294-.407l-6.91-3.144 5.28-4.017a.526.526 0 00-.101-.893L26.564.2a.483.483 0 00-.486.059L20.696 4.33l-6.762-3.228a.484.484 0 00-.478.035L.308 9.934a.523.523 0 00-.227.469.518.518 0 00.285.433l6.547 3.197L.367 18.74a.522.522 0 00-.214.455c.01.18.11.34.263.425l6.962 3.844V34.15a.52.52 0 00.272.46l19.357 10.214a.485.485 0 00.566-.083l12.488-12.115a.527.527 0 00.158-.377v-8.536l7.512-6.155a.528.528 0 00.185-.472z" fill="#3A98B2"/></svg>