<svg width="50" height="52" fill="none" xmlns="http://www.w3.org/2000/svg"><g clip-path="url(#clip0_1_1570)" fill="#3A98B2"><path d="M47.875 51H24.958a1.042 1.042 0 01-1.041-1.042V27.042c0-.575.466-1.042 1.041-1.042h22.917c.575 0 1.042.467 1.042 1.042v22.916c0 .575-.467 1.042-1.042 1.042zM26 48.917h20.833V28.083H26v20.834z"/><path d="M36.417 28.083H13.5a1.042 1.042 0 01-1.042-1.041V4.125c0-.575.467-1.042 1.042-1.042h22.917c.575 0 1.041.467 1.041 1.042v22.917a1.04 1.04 0 01-1.041 1.041zM14.542 26h20.833V5.167H14.542V26z"/><path d="M28.083 13.5h-6.25a1.042 1.042 0 01-1.041-1.042V4.125c0-.575.466-1.042 1.041-1.042h6.25c.575 0 1.042.467 1.042 1.042v8.333c0 .575-.467 1.042-1.042 1.042zm-5.208-2.083h4.167v-6.25h-4.167v6.25zm16.667 25h-6.25a1.042 1.042 0 01-1.042-1.042v-8.333c0-.575.467-1.042 1.042-1.042h6.25c.575 0 1.041.467 1.041 1.042v8.333c0 .575-.466 1.042-1.041 1.042zm-5.209-2.084H38.5v-6.25h-4.167v6.25zM24.958 51H2.042A1.042 1.042 0 011 49.958V27.042C1 26.467 1.467 26 2.042 26h22.916c.575 0 1.042.467 1.042 1.042v22.916c0 .575-.467 1.042-1.042 1.042zM3.083 48.917h20.834V28.083H3.083v20.834z"/><path d="M16.625 36.417h-6.25a1.042 1.042 0 01-1.042-1.042v-8.333c0-.575.467-1.042 1.042-1.042h6.25c.575 0 1.042.467 1.042 1.042v8.333c0 .575-.467 1.042-1.042 1.042zm-5.208-2.084h4.166v-6.25h-4.166v6.25z"/></g><defs><clipPath id="clip0_1_1570"><path fill="#fff" d="M0 0h50v52H0z"/></clipPath></defs></svg>