<svg width="194" height="51" fill="none" xmlns="http://www.w3.org/2000/svg"><path fill-rule="evenodd" clip-rule="evenodd" d="M16.014 14.748c0 .948-.001 1.897.001 2.845.001.298.007.305.283.306 1.002.004 2.005-.003 3.008.005.212.002.278-.07.277-.28-.006-1.884-.003-3.767-.005-5.65 0-.28-.008-.286-.303-.287-.989-.003-1.978-.004-2.967 0-.285 0-.292.009-.293.297-.002.92 0 1.842 0 2.764zM8.038 11.58c.55-.498 1.099-.998 1.65-1.495l7.73-6.974c.392-.354.396-.358.797.002.636.57 1.267 1.146 1.901 1.718.09.08.168.177.314.234.084-.248.022-.5.045-.745.02-.211-.097-.478.063-.62.138-.12.39-.035.592-.037.57-.005 1.14-.003 1.709-.001.387.001.388.003.388.406 0 1.017.017 2.034-.008 3.05-.01.377.117.625.395.868 1.253 1.1 2.49 2.22 3.73 3.333.098.088.182.19.323.338h-1.082c-.285 0-.57-.005-.855 0-.313.006-.448.112-.502.413-.024.132-.018.27-.018.405.004 1.356-.005 2.712.023 4.067.01.522-.207.829-.663 1.046a215.185 215.185 0 00-6.103 3.04c-.452.233-.852.227-1.304-.004a218.136 218.136 0 00-6.108-3.032c-.474-.225-.678-.566-.67-1.093.023-1.369.016-2.739.02-4.108 0-.095.001-.19-.009-.284-.035-.333-.157-.447-.498-.45-.608-.004-1.216 0-1.823 0l-.037-.077z" fill="#ABD2D9"/><path fill-rule="evenodd" clip-rule="evenodd" d="M89.42 39.65c-.283 0-.522.037-.741.153-.427.226-.593.701-.383 1.13.197.403.462.76.797 1.062.243.218.341.227.606.04a3.03 3.03 0 00.847-.914c.287-.476.143-1.007-.345-1.279a1.575 1.575 0 00-.78-.192zm-.825 9.128c.672.04 1.266-.248 1.835-.604.351-.22.375-.367.113-.68-.61-.725-1.223-1.45-1.84-2.169-.32-.373-.495-.403-.906-.128-.671.45-1.046 1.09-1.09 1.9-.037.706.334 1.251.99 1.527.279.119.57.16.898.154zm3.768-2.935l.413-.679c.248-.408.609-.558 1.073-.473.347.063.684.166 1.008.304.263.112.331.249.242.516-.162.487-.295.982-.588 1.42-.34.511-.27.853.219 1.223.258.196.541.36.803.552.38.281.42.464.17.857a7.46 7.46 0 01-.616.856c-.412.484-.817.508-1.304.109-.105-.087-.2-.184-.301-.274-.47-.415-.995-.527-1.581-.284-.212.088-.42.187-.625.292-1.838.943-3.682.834-5.453-.113-2.033-1.087-2.363-3.705-.757-5.456.24-.261.504-.493.798-.69.225-.151.452-.3.68-.444.432-.272.392-.21.132-.587-.13-.19-.269-.375-.39-.57-.308-.501-.53-1.032-.579-1.63-.066-.819.213-1.488.838-2.013.534-.45 1.175-.658 1.847-.788 1.173-.228 2.297-.12 3.324.534.864.55 1.34 1.327 1.266 2.38-.054.76-.417 1.365-.988 1.847-.29.244-.61.45-.907.687-.275.219-.284.269-.148.586.059.136.13.269.208.394.336.53.778.968 1.216 1.444zM17.848 21.849c3.047-1.53 6.07-3.045 9.029-4.53.075-.08.07-.1.035-.116-.611-.263-.812-.757-.77-1.383.054-.826.035-1.653.022-2.48-.002-.082-.009-.163-.007-.244.008-.447.18-.588.611-.513.443.077.861.214 1.264.422 1.216.625 2.441 1.231 3.737 1.883l-4.607 2.338c1.547.78 3.028 1.53 4.54 2.293-.15.153-.314.219-.467.296-1.97.993-3.941 1.983-5.912 2.974-.714.358-1.432.708-2.136 1.085-.486.26-.938.252-1.427-.002-1.165-.607-2.343-1.188-3.515-1.78-.12-.06-.251-.102-.397-.243zm-14-2.29l4.618-2.335-4.61-2.332c1.556-.783 3.03-1.582 4.56-2.27a1.44 1.44 0 01.23-.078c.46-.119.695.03.784.493.008.04.018.08.02.12.055 1.084.04 2.168.012 3.252-.011.425-.13.53-.684.92l8.875 4.457c-.075.22-.273.27-.432.348-.692.34-1.39.67-2.088 1.002-.342.163-.693.309-1.026.489-.683.369-1.355.29-2.029-.012-1.508-.676-2.949-1.488-4.43-2.216-1.155-.567-2.317-1.117-3.476-1.675-.085-.04-.168-.084-.324-.163z" fill="#F2B91D"/><path fill-rule="evenodd" clip-rule="evenodd" d="M17.504 31.015c-.16-.076-.283-.13-.403-.19l-7.95-3.968c-.073-.037-.143-.08-.217-.112-.31-.136-.44-.374-.435-.71.01-.622.008-1.245.01-1.869V22.47c.143-.045.227.037.32.083 1.211.602 2.43 1.191 3.629 1.815.494.257.93.246 1.419-.011 1.077-.566 2.174-1.095 3.265-1.634.106-.053.205-.13.362-.134v8.427zm.646-8.401c.141-.023.24.059.347.11 1.102.548 2.211 1.084 3.303 1.653.465.242.88.242 1.345.002 1.19-.616 2.393-1.204 3.591-1.803.107-.053.219-.1.324-.147.119.072.07.177.07.262.006 1.097 0 2.194.012 3.292.004.386-.157.624-.504.795-2.23 1.103-4.456 2.22-6.682 3.332-.472.235-.941.476-1.415.707-.118.058-.225.154-.392.143v-8.346z" fill="#F2B91D"/><path fill-rule="evenodd" clip-rule="evenodd" d="M18.15 22.614v8.346c.166.012.273-.085.39-.142.475-.232.944-.473 1.416-.708 2.227-1.112 4.451-2.228 6.682-3.331.347-.172.508-.41.504-.796-.011-1.097-.006-2.195-.011-3.292 0-.085.047-.19-.07-.262-.106.048-.218.094-.325.148-1.198.598-2.402 1.187-3.591 1.802-.464.24-.88.24-1.345-.002-1.092-.568-2.2-1.105-3.303-1.652-.106-.052-.206-.133-.348-.11zm-.646 8.4v-8.426c-.157.003-.256.081-.362.134-1.09.54-2.188 1.068-3.265 1.634-.49.257-.925.268-1.42.011-1.199-.623-2.417-1.213-3.628-1.815-.093-.045-.177-.128-.32-.083v1.697c-.002.624 0 1.247-.01 1.87-.006.335.125.573.435.71.074.032.144.074.216.111l7.951 3.968c.12.06.242.114.403.19zM3.848 19.56c.156.079.24.122.324.163 1.158.558 2.32 1.108 3.475 1.675 1.482.728 2.922 1.54 4.431 2.216.674.302 1.346.381 2.029.012.333-.18.684-.326 1.026-.49.697-.332 1.396-.66 2.088-1.001.159-.079.357-.128.432-.347L8.778 17.33c.553-.39.673-.494.684-.92.028-1.083.043-2.168-.012-3.251-.003-.04-.012-.08-.02-.12-.09-.465-.325-.613-.785-.494-.078.02-.156.045-.23.078-1.53.689-3.003 1.487-4.56 2.27l4.61 2.333-4.617 2.334zm14 2.29c.145.141.277.183.396.244 1.173.592 2.35 1.172 3.516 1.779.489.255.94.262 1.426.002.704-.376 1.423-.726 2.136-1.085 1.97-.991 3.943-1.98 5.913-2.974.152-.077.316-.142.466-.295l-4.539-2.294 4.607-2.338c-1.296-.651-2.522-1.257-3.737-1.883a4.352 4.352 0 00-1.264-.421c-.432-.076-.604.066-.612.513-.001.08.006.162.007.243.013.827.033 1.654-.022 2.48-.041.627.16 1.12.77 1.384.035.015.04.036-.035.116l-9.028 4.529zm-9.81-10.27l.037.077c.608 0 1.216-.003 1.823.001.341.003.464.117.498.45.01.093.01.189.009.284-.004 1.369.003 2.738-.02 4.108-.008.526.196.867.67 1.092a218.54 218.54 0 016.108 3.032c.452.232.852.238 1.305.004a215.18 215.18 0 016.102-3.04c.456-.217.674-.523.663-1.046-.027-1.355-.019-2.711-.023-4.066 0-.136-.006-.274.018-.406.054-.3.189-.406.502-.412.285-.005.57-.001.855-.001h1.082c-.14-.147-.225-.25-.322-.337-1.241-1.114-2.477-2.234-3.731-3.333-.278-.244-.404-.492-.395-.868.025-1.016.01-2.034.008-3.05 0-.404-.001-.406-.388-.407-.57-.001-1.14-.003-1.709.002-.201.001-.454-.084-.591.036-.161.142-.043.41-.063.62-.024.245.038.497-.045.745-.147-.056-.225-.153-.315-.234-.633-.572-1.265-1.147-1.9-1.717-.402-.36-.405-.357-.798-.003l-7.73 6.975c-.551.496-1.1.996-1.65 1.494zm-7.15 5.313C.934 7.55 8.593.094 17.594.001c9.342-.096 17.157 7.608 17.153 16.91-.004 8.834-7.206 16.928-16.88 16.939C8.473 33.859.943 26.28.887 16.894zm143.963 1.925c.073-.16.044-.297.044-.428.006-3.159.01-6.317.012-9.475.001-.502-.016-1.004-.016-1.505 0-.551.155-.71.694-.71 1.504-.003 3.009-.001 4.513 0 .095 0 .192-.005.284.013.261.05.371.17.382.492.018.528.01 1.057.01 1.586.001.19-.011.379-.012.568l.001 16.186c0 .949.01 1.898.014 2.846.001.108.004.217-.004.325-.031.409-.145.535-.555.538-.772.006-1.545-.013-2.317-.012-.677 0-1.358-.018-2.032.033-.659.05-1.097-.183-1.437-.755-2.086-3.5-4.192-6.99-6.291-10.482-.138-.229-.261-.47-.532-.624-.077.158-.042.307-.042.447 0 3.429.004 6.858.006 10.288 0 .109-.004.217.001.326.022.493-.028.838-.821.801a55.447 55.447 0 00-3.252-.03c-.366.004-.731.023-1.096.028-.121.002-.243-.017-.363-.031-.226-.025-.331-.167-.348-.381a5.54 5.54 0 01-.013-.447l.008-13.704c0-2.414-.006-4.826-.008-7.24-.001-.685.09-.779.769-.77 1.369.015 2.738.05 4.106-.012.667-.03 1.099.25 1.426.803a880.44 880.44 0 003.078 5.162c1.17 1.95 2.343 3.898 3.519 5.845.066.109.101.25.272.32zm31.438-.84l.001-10.37c0-.784.135-.911.925-.91l14.722.001c.839 0 .975.13.936.969-.046.975-.057 1.95.002 2.924.003.054.004.108.005.163.013.635-.147.806-.772.81-.529.002-1.058-.007-1.586-.008-2.372-.005-4.744-.01-7.116-.012-.163 0-.327.002-.486.028-.247.04-.348.154-.378.404a1.58 1.58 0 00-.004.284c.04.69.036 1.381.002 2.072-.004.082-.009.163-.005.244.02.348.141.493.498.51.459.02.921.007 1.381.006 2.305-.004 4.609-.01 6.914-.013.121 0 .242 0 .362.037.233.07.373.218.386.464a6.64 6.64 0 010 .528c-.027.922-.024 1.843.002 2.764.004.136.012.272.001.407-.024.28-.113.372-.383.45-.227.066-.458.044-.687.043-1.83-.002-3.66-.005-5.49-.013-.704-.003-1.409-.021-2.113-.033-.054 0-.109-.003-.163 0-.571.023-.716.17-.702.745.024.99.04 1.979-.009 2.968-.026.525.12.685.651.71.364.016.731-.011 1.096-.013 2.63-.008 5.259-.015 7.889-.02.826-.002.98.156.938.976a32.417 32.417 0 00-.003 3.21c.005.122.005.244 0 .366-.018.44-.142.586-.587.604-.474.02-.949.003-1.424 0-.121 0-.243-.014-.364-.014-3.01-.005-6.019-.015-9.029-.013-1.504.001-3.008.025-4.512.033-.779.005-.897-.116-.897-.89l-.001-10.411zM49.57 12.857l-.083-.007c-.136.503-.273 1.006-.408 1.51-.511 1.907-1.023 3.813-1.532 5.72-.128.48-.078.547.423.545 1.043-.002 2.086-.017 3.13.01.44.01.535-.12.44-.542-.023-.105-.056-.209-.085-.313-.236-.846-.476-1.691-.706-2.54-.396-1.46-.786-2.922-1.179-4.383zM38.778 29.209c.29-.885.57-1.744.853-2.603 2.08-6.307 4.161-12.613 6.243-18.92.034-.103.07-.205.107-.306.18-.473.513-.705 1.028-.693.908.02 1.816.033 2.724.036.814.002 1.627-.018 2.44-.024.7-.006.86.11 1.083.786.791 2.402 1.575 4.807 2.37 7.207 1.509 4.558 3.024 9.113 4.536 13.669.022.064.04.13.06.194.174.58.05.74-.564.721a80.985 80.985 0 00-5 .003c-.57.019-.766-.135-.913-.7-.214-.825-.43-1.65-.643-2.475-.106-.407-.253-.529-.694-.529-1.288-.001-2.575.006-3.864.007-.623 0-1.247-.008-1.87-.007-.52 0-.661.12-.79.625-.213.84-.43 1.677-.649 2.514-.113.435-.235.542-.679.542-1.884 0-3.769-.009-5.653-.015-.026 0-.052-.013-.125-.032zm77.976-8.598c.114.007.18.015.246.015h3.534c.068 0 .136-.004.203-.007.175-.009.237-.111.215-.272-.011-.08-.04-.157-.061-.235-.616-2.254-1.231-4.51-1.851-6.763-.032-.116.008-.325-.174-.318-.165.007-.138.21-.171.329-.384 1.407-.76 2.817-1.137 4.227-.265.991-.527 1.983-.804 3.024zm-8.636 8.59c.309-.933.621-1.868.93-2.804l6.224-18.841c.029-.09.058-.18.093-.27.156-.395.442-.6.875-.591.569.01 1.139.017 1.708.017 1.193 0 2.386-.005 3.579-.007.713 0 .818.076 1.045.761l5.387 16.251c.548 1.656 1.1 3.31 1.65 4.966.186.56.186.56-.397.56l-5.37.001c-.531 0-.561-.025-.7-.527-.237-.86-.491-1.717-.697-2.586-.107-.45-.247-.556-.71-.556-1.925-.003-3.85-.003-5.775 0-.475 0-.587.104-.702.558-.216.852-.436 1.703-.659 2.554-.125.474-.248.571-.74.57-1.275-.001-2.549-.01-3.823-.012-.502 0-1.004.012-1.505.012-.131 0-.269.036-.413-.056zm52.145-11.326c.015 1.39.06 2.608.41 3.79.206.697.511 1.34 1.046 1.853.541.52 1.19.792 1.932.834.445.024.89.026 1.335-.064.757-.154 1.345-.55 1.79-1.168.399-.555.671-1.173.895-1.815.084-.243.154-.491.254-.727.151-.354.339-.452.713-.35.43.12.852.266 1.274.41 1.022.35 2.043.705 3.064 1.058.373.13.452.234.366.595-.406 1.72-1.06 3.327-2.221 4.69-1.172 1.373-2.658 2.19-4.433 2.498-1.289.224-2.582.304-3.884.15-1.133-.134-2.243-.373-3.294-.824-1.589-.682-2.773-1.822-3.634-3.305-.825-1.42-1.32-2.965-1.626-4.569-.588-3.085-.277-6.091.864-9.016 1.121-2.876 3.215-4.623 6.209-5.29 2.028-.45 4.056-.44 6.071.115 1.965.54 3.443 1.712 4.491 3.446.514.85.893 1.76 1.205 2.7.139.417.071.538-.347.639a127.6 127.6 0 00-4.437 1.138c-.039.01-.08.015-.12.024-.357.077-.5-.003-.586-.362-.159-.663-.498-1.227-.959-1.716-.718-.762-1.627-1.041-2.648-.988-1.605.083-2.55 1.045-3.159 2.427-.292.663-.399 1.375-.487 2.088-.078.634-.113 1.27-.084 1.739zm-97.975.167V7.592c0-.779.12-.906.887-.892a100.39 100.39 0 004.512-.004c.706-.005.87.152.871.847.002.759.001 1.518 0 2.277-.001 2.454 0 4.907-.007 7.36-.004 1.87-.017 3.74-.025 5.61-.002.71.194.913.888.891 1.68-.055 3.36-.023 5.04-.033l2.806-.014c.095 0 .191-.004.284.009.398.053.55.207.558.612.01.474-.01.948-.01 1.422 0 .95.006 1.898.01 2.846 0 .095.005.19-.004.285-.027.305-.113.385-.422.445-.204.04-.406.005-.608.005-3.09-.004-6.18-.013-9.27-.012-1.532.001-3.063.023-4.594.035H63c-.613-.008-.704-.098-.704-.707V18.042h-.009zm18.542-.035V8.614c0-.406-.023-.814-.005-1.219.024-.545.192-.708.725-.697 1.585.03 3.17.03 4.756 0 .527-.01.716.179.724.701.01.596-.002 1.193-.002 1.79l-.007 12.238c0 .502-.018 1.003-.005 1.504.015.535.174.699.707.74.255.02.514-.001.771-.002l4.838-.021 2.399-.012c.081 0 .163-.006.243 0 .452.031.61.178.602.637-.023 1.464-.013 2.927-.004 4.391.003.44-.133.58-.58.608-.365.022-.732.013-1.098.007-2.968-.05-5.935-.035-8.903-.033-1.437.002-2.873.025-4.309.033-.766.005-.87-.1-.868-.863.007-2.684.017-5.367.024-8.051.003-.786 0-1.572 0-2.358h-.007zm24.931-.03c0 3.457-.001 6.915.001 10.372 0 .82-.13.934-.943.915-1.45-.034-2.9-.063-4.35.014-.751.04-.926-.127-.925-.862.006-4.732.013-9.464.014-14.196.001-2.128-.01-4.257-.014-6.385 0-.15-.004-.299.005-.448.028-.496.215-.684.708-.69.461-.004.922.006 1.382.018 1.031.026 2.061-.003 3.091-.015.176-.002.353-.011.529.005.311.028.457.178.487.493.013.135.007.271.007.407l.001 10.372h.007zM12.226 46.229c.174-.144.206-.352.258-.543.61-2.233 1.217-4.466 1.818-6.7.225-.837.298-.903 1.17-.882.759.017 1.518.011 2.277-.008.58-.014.728.117.738.7.01.719-.01 1.438-.012 2.156l-.014 7.525c0 .434.005.868-.013 1.301-.024.642-.233.84-.875.851-.339.006-.678.006-1.016-.007-.442-.017-.572-.162-.572-.605l.011-7.688v-.426c-.122.1-.136.221-.17.332-.703 2.22-1.261 4.48-1.852 6.732-.093.353-.183.706-.321 1.046-.168.411-.474.612-.912.616a32.13 32.13 0 01-1.058-.003c-.405-.01-.692-.208-.856-.578-.16-.36-.252-.742-.352-1.123-.59-2.222-1.152-4.453-1.857-6.643l-.117-.36c-.112.123-.06.256-.06.373-.001 2.563.001 5.125.004 7.688 0 .488-.128.627-.62.64-.367.01-.733.015-1.099.004-.513-.017-.706-.19-.78-.697-.028-.2-.025-.405-.025-.608-.004-3.2-.005-6.4-.008-9.6 0-.312-.011-.624-.006-.936.01-.56.152-.703.703-.69.882.023 1.762.023 2.643.001.506-.012.679.112.817.604.278.99.54 1.985.814 2.975.372 1.343.752 2.684 1.123 4.027.051.184.117.357.22.526zm131.893-2.823v-.017c.352 0 .704.01 1.055-.002a6.74 6.74 0 001.366-.16c.755-.183 1.138-.712 1.116-1.517-.02-.709-.472-1.212-1.224-1.338-.722-.119-1.453-.139-2.182-.154a5.828 5.828 0 00-.971.052c-.64.095-.793.266-.852.91-.056.607.013 1.215-.034 1.823-.021.277.101.393.388.4.446.01.892.003 1.338.003zm3.116 1.714c.133.179.294.258.429.368.679.551 1.239 1.211 1.74 1.923.709 1.009 1.316 2.085 2.039 3.084.012.017.001.05.001.123h-.297c-.813 0-1.627-.011-2.44.005-.338.007-.546-.127-.735-.4a225.324 225.324 0 00-2.65-3.752c-.613-.847-1.491-1.124-2.5-1.056-.287.02-.374.118-.402.407-.008.094-.004.19-.004.285l.012 3.782c0 .082.006.163 0 .244-.024.314-.14.466-.443.479-.5.02-1.004.031-1.503-.005-.485-.036-.68-.267-.728-.768-.032-.337-.05-.676-.051-1.014-.004-2.888-.002-5.777-.003-8.664 0-.42-.008-.84-.009-1.26a1.94 1.94 0 01.017-.325c.056-.345.191-.467.541-.478.257-.008.516.006.773.006 1.437 0 2.874-.007 4.311-.002.841.003 1.682.042 2.503.237 2.132.51 3.207 2.686 2.328 4.702-.311.715-.854 1.207-1.533 1.564-.434.228-.903.359-1.396.515zM54.96 42.892c-.1.1-.129.24-.12.39.081 1.518-.019 3.035.012 4.552.015.704.018 1.408.018 2.113 0 .555-.112.67-.661.68-.352.005-.705.012-1.057-.004-.52-.025-.736-.233-.777-.747-.026-.324-.037-.65-.036-.974.002-1.803.015-3.605.013-5.408-.003-1.477-.024-2.953-.032-4.43-.004-.77.097-.887.854-.997.98-.143 1.792.15 2.396.95.154.205.296.422.425.643 1.219 2.097 2.586 4.099 3.895 6.138.036.057.072.117.121.161.078.073.153.055.17-.053.016-.106.006-.216.006-.324-.002-2.196-.005-4.391-.006-6.587 0-.778.148-.925.93-.901.338.01.675-.006 1.012.058.328.063.494.247.548.565.04.229.035.459.035.689v7.115c.001 1.07.007 2.141.01 3.212 0 .095 0 .19-.007.285-.025.337-.14.502-.47.573-1.081.23-2.094.077-2.863-.938a6.977 6.977 0 01-.484-.751c-1.167-2.033-2.511-3.953-3.788-5.917-.027-.042-.051-.095-.144-.093zm19.469.985h2.155c.525 0 .652.113.64.646a90.501 90.501 0 00-.012 3.13c.003.245.014.488.014.732 0 .382-.16.674-.488.88-1.59 1.001-3.302 1.616-5.202 1.593a8.113 8.113 0 01-3.302-.745c-1.36-.622-2.317-1.642-2.81-3.052-.584-1.67-.657-3.375-.112-5.069.64-1.99 1.973-3.28 4.01-3.827 1.715-.46 3.399-.4 5.06.236 1.281.49 2.077 1.424 2.511 2.697.026.077.044.157.053.236.019.155-.022.263-.208.275-.73.049-1.46.102-2.19.159a.38.38 0 01-.326-.127c-.102-.109-.213-.212-.295-.335-.629-.939-1.55-1.282-2.626-1.242-.993.036-1.877.382-2.58 1.116-.486.507-.704 1.15-.871 1.808-.303 1.197-.177 2.359.304 3.496.407.962 1.105 1.584 2.088 1.902.996.323 1.993.34 2.984-.028a2.92 2.92 0 00.901-.538c.287-.246.426-.553.407-.93-.007-.15-.01-.299-.018-.448-.02-.413-.055-.45-.485-.467-.556-.021-1.111-.036-1.667-.053-.162-.005-.325-.003-.488-.01-.26-.013-.343-.07-.376-.325a4.591 4.591 0 01.04-1.295c.036-.234.187-.354.41-.387.133-.02.27-.023.405-.023.69-.002 1.382-.001 2.074-.001v-.004zm100.486.001h2.115c.573-.002.692.105.677.691a83.784 83.784 0 00-.014 3.131c.003.244.017.488.012.731a.934.934 0 01-.457.814c-1.635 1.04-3.399 1.665-5.358 1.611a8.065 8.065 0 01-3.18-.745c-1.429-.66-2.397-1.75-2.875-3.247-.484-1.518-.555-3.065-.123-4.605.601-2.14 1.965-3.536 4.136-4.107 1.7-.448 3.373-.383 5.021.252 1.28.492 2.073 1.426 2.507 2.7.026.075.043.156.052.236.018.157-.032.257-.214.27-.73.048-1.46.102-2.19.158a.383.383 0 01-.325-.13c-.102-.11-.212-.213-.294-.336-.63-.938-1.553-1.273-2.628-1.24a3.729 3.729 0 00-2.252.817 2.671 2.671 0 00-.787.97c-.698 1.516-.769 3.042-.116 4.602.416.997 1.133 1.636 2.143 1.952.983.308 1.971.323 2.947-.047.359-.135.678-.332.959-.596.232-.218.344-.483.344-.795 0-.204-.009-.407-.022-.61-.02-.297-.07-.357-.365-.373-.528-.028-1.056-.041-1.585-.057-.23-.008-.461-.021-.691-.009-.222.011-.339-.1-.365-.295a4.284 4.284 0 01.047-1.374c.039-.201.176-.301.363-.333a2.74 2.74 0 01.444-.032c.691-.003 1.383-.001 2.074-.001v-.003zm-144.517.279c0-.202.012-.406-.002-.608-.154-2.22-1.559-3.266-3.086-3.453-1.668-.204-3.217.722-3.75 2.315a5.79 5.79 0 00-.277 1.389c-.085 1.073.063 2.104.59 3.062.621 1.125 1.847 1.992 3.504 1.738 1.674-.257 2.441-1.238 2.788-2.476.18-.642.25-1.3.233-1.967zm-3.477 6.687c-.857-.034-1.66-.108-2.442-.361-1.807-.585-3.014-1.778-3.575-3.583-.53-1.699-.51-3.423.022-5.118.565-1.807 1.78-3.005 3.6-3.547 1.484-.442 2.988-.484 4.483-.054 1.89.545 3.182 1.763 3.813 3.618.618 1.817.579 3.655-.127 5.445-.776 1.965-2.28 3.062-4.324 3.464-.494.096-.995.106-1.45.136zm108.039-6.499c-.021-.337-.038-.675-.063-1.013-.129-1.754-1.352-3.022-3.079-3.236-1.679-.207-3.288.784-3.767 2.41a6.321 6.321 0 00-.076 3.37c.519 2.074 2.408 3.204 4.45 2.634 1.174-.329 1.898-1.151 2.289-2.28.21-.608.25-1.244.246-1.885zm-9.907.13c.029-1.02.129-1.974.463-2.89.582-1.6 1.66-2.707 3.279-3.26 1.511-.515 3.059-.598 4.601-.198 2 .52 3.338 1.807 3.975 3.767a7.835 7.835 0 01-.044 5.072c-.723 2.095-2.234 3.308-4.382 3.731a7.866 7.866 0 01-3.661-.142c-2.313-.643-3.626-2.197-4.085-4.518-.105-.533-.126-1.076-.146-1.561zm-17.587 6.311c-.858.047-1.702-.025-2.518-.319-1.143-.411-1.966-1.168-2.448-2.284a9.173 9.173 0 01-.385-1.068c-.1-.346.001-.512.356-.594.581-.136 1.177-.174 1.768-.245.216-.027.395.084.494.289.058.122.102.25.153.376.772 1.878 3.131 2.25 4.571 1.114.276-.217.455-.501.515-.85.111-.642-.2-1.154-.863-1.373-.474-.157-.96-.277-1.442-.409-.716-.195-1.439-.372-2.15-.584-.786-.234-1.535-.558-2.091-1.188-.927-1.05-1.123-2.255-.638-3.557.245-.66.728-1.138 1.355-1.453 2.234-1.123 4.455-1.09 6.637.131.965.54 1.386 1.446 1.477 2.517.029.333-.002.341-.318.388-.576.084-1.154.147-1.737.164-.335.01-.599-.124-.709-.436-.322-.913-1.075-1.206-1.919-1.336-.509-.079-1.026-.057-1.522.133a1.726 1.726 0 00-.62.375c-.427.421-.408.954.049 1.341.188.16.41.258.636.353.741.309 1.53.438 2.302.632.761.192 1.519.391 2.227.736.947.46 1.625 1.156 1.887 2.206.195.781.18 1.56-.055 2.326-.214.696-.648 1.241-1.233 1.67-.822.606-1.761.873-2.764.941-.337.024-.676.004-1.015.004zm72.552-6.445v-5.488c0-.68.089-.757.781-.757 2.642.002 5.285 0 7.928-.001.176 0 .353-.007.528.008.283.025.403.134.408.404.008.434-.001.868-.021 1.3-.012.248-.122.357-.375.407a4.288 4.288 0 01-.849.064 5802.389 5802.389 0 00-5.042-.013c-.566.006-.656.09-.662.665-.007.542-.002 1.084.004 1.626.005.374.071.434.464.439l5.285.069c.122.001.244-.002.366.005.28.015.298.032.312.304.02.393.038.785.051 1.178.013.42-.073.535-.489.59-.39.05-.784-.004-1.176-.006-1.423-.004-2.846-.013-4.269-.006-.43.002-.558.144-.545.574.022.76.016 1.517 0 2.276-.009.463.004.47.48.475 2.046.021 4.092.044 6.139.056.666.004.539.098.551.529.011.393.032.785.038 1.178.004.288-.057.357-.34.396-.133.018-.27.011-.405.011h-8.538c-.492-.008-.622-.133-.623-.632-.003-1.883-.001-3.767-.001-5.65zm-21.34-3.076l-.087-.005-.384 1.008c-.375.97-.754 1.937-1.122 2.909-.126.334-.067.413.291.416.568.007 1.136.002 1.704.002.298 0 .596.007.893-.002.292-.008.356-.101.273-.382-.026-.09-.068-.176-.103-.264-.126-.312-.254-.625-.378-.938l-1.087-2.744zm-6.446 9.358c-.047-.181.038-.285.081-.393 1.562-3.86 3.127-7.719 4.693-11.577a2.31 2.31 0 01.155-.33.431.431 0 01.4-.227c.719.006 1.436.006 2.155 0a.472.472 0 01.461.268c.05.095.097.193.139.293 1.627 3.893 3.253 7.786 4.877 11.68.035.083.102.162.067.286h-2.469c-.279 0-.437-.131-.528-.405-.244-.731-.513-1.454-.775-2.18-.139-.385-.18-.42-.588-.413a110.33 110.33 0 01-4.471 0c-.384-.008-.434.034-.56.394-.258.742-.518 1.482-.764 2.227-.085.256-.243.377-.505.377h-2.368zM40.06 47.09c.579-1.66 1.159-3.316 1.735-4.974.395-1.137.816-2.265 1.178-3.413.154-.49.306-.596.827-.605.447-.007.895-.017 1.34.002.533.023.667.209.571.73-.06.322-.182.624-.294.928l-3.738 10.08c-.243.657-.44.79-1.146.788-.34-.002-.678-.003-1.017-.001-.792.003-.972-.122-1.263-.872-.626-1.613-1.251-3.228-1.883-4.84-.695-1.777-1.397-3.55-2.095-5.325-.109-.277-.216-.556-.269-.85-.067-.374.074-.585.448-.625.621-.064 1.246-.034 1.868 0 .246.013.43.159.521.395.069.176.127.357.192.535.958 2.602 1.917 5.203 2.874 7.805.032.089.042.188.15.241zm79.067-8.995c1.437 0 2.874-.002 4.311 0 .744.002.887.166.799.893-.03.257-.006.513.01.77.023.365-.1.52-.459.518-.826-.007-1.653.038-2.479-.013-.068-.005-.135-.017-.203-.02-.468-.007-.65.147-.667.616-.014.391.021.785.02 1.178 0 2.02-.007 4.04-.009 6.059 0 .61.011 1.22.011 1.83.001.551-.135.689-.698.699-.38.007-.76.015-1.139-.005-.574-.03-.794-.255-.841-.83-.069-.84-.035-1.68-.043-2.52-.018-1.965-.044-3.93.035-5.895a3.243 3.243 0 00-.004-.406c-.047-.532-.293-.782-.82-.731-.799.078-1.598.017-2.397.042-.54.017-.669-.11-.682-.656a10.24 10.24 0 01.011-.893c.024-.402.17-.554.569-.61.147-.02.297-.016.446-.016h4.229v-.01zM49.874 44.52v5.364c0 .095 0 .19-.01.284-.033.28-.153.433-.437.443-.54.017-1.081.056-1.62-.05-.336-.065-.513-.258-.58-.588-.056-.27-.056-.538-.056-.81-.002-2.464 0-4.93-.002-7.394 0-.895-.01-1.788-.013-2.682 0-.176-.002-.354.023-.527.04-.267.188-.431.451-.447.526-.031 1.057-.056 1.58.04.415.078.555.226.617.64.032.212.03.432.03.648.002 1.693.002 3.386.002 5.08h.015z" fill="#142B35"/><path fill-rule="evenodd" clip-rule="evenodd" d="M16.015 14.748c0-.922-.002-1.843 0-2.764.002-.288.008-.296.293-.297.99-.004 1.979-.003 2.967 0 .295 0 .303.008.303.287.002 1.883-.001 3.766.005 5.65 0 .21-.064.282-.277.28-1.003-.008-2.005-.001-3.008-.005-.276 0-.281-.008-.282-.306-.003-.949-.001-1.897-.001-2.845z" fill="#142B35"/></svg>