<svg width="50" height="50" fill="none" xmlns="http://www.w3.org/2000/svg"><g clip-path="url(#clip0_1_917)" fill="#3A98B2"><path d="M49.588 14.282L25.422.116a.833.833 0 00-.824-.011L.43 13.438a.832.832 0 00-.431.73v35c0 .46.373.833.833.833H5c.46 0 .833-.373.833-.834V20.001h38.334v29.166c0 .461.372.834.833.834h4.167c.46 0 .833-.373.833-.834V15.001a.832.832 0 00-.412-.719zm-1.255 34.052h-2.5V19.167a.833.833 0 00-.833-.833H5a.834.834 0 00-.833.833v29.167h-2.5V14.659l23.32-12.867 23.346 13.686v32.856z"/><path d="M41.667 38.333h-10a.832.832 0 00-.834.833v10c0 .461.373.834.834.834h10c.46 0 .833-.373.833-.834v-10a.833.833 0 00-.833-.833zm-.834 10H32.5V40h8.333v8.333z"/><path d="M37.5 39.166v2.5h-1.667v-2.5h-1.666V42.5c0 .46.372.833.833.833h3.333a.833.833 0 00.834-.833v-3.334H37.5zm-5.833-.833h-10a.833.833 0 00-.834.833v10c0 .461.374.834.834.834h10c.46 0 .833-.373.833-.834v-10a.833.833 0 00-.833-.833zm-.834 10H22.5V40h8.333v8.333z"/><path d="M27.5 39.166v2.5h-1.667v-2.5h-1.666V42.5c0 .46.373.833.833.833h3.333a.833.833 0 00.834-.833v-3.334H27.5zm14.167-10.833h-10a.832.832 0 00-.834.833v10c0 .461.373.834.834.834h10c.46 0 .833-.373.833-.834v-10a.833.833 0 00-.833-.833zm-.834 10H32.5V30h8.333v8.333z"/><path d="M37.5 29.166v2.5h-1.667v-2.5h-1.666V32.5c0 .46.372.833.833.833h3.333a.833.833 0 00.834-.833v-3.334H37.5zM45 25H5v1.666h40V25zm0-3.334H5v1.667h40v-1.666zm-15.833-10h-8.334A.834.834 0 0020 12.5v3.333c0 .46.373.833.833.833h8.334c.46 0 .833-.373.833-.833V12.5a.833.833 0 00-.833-.834zM28.333 15h-6.666v-1.667h6.666V15z"/></g><defs><clipPath id="clip0_1_917"><path fill="#fff" d="M0 0h50v50H0z"/></clipPath></defs></svg>