<svg width="24" height="24" viewBox="0 0 24 24" fill="none" xmlns="http://www.w3.org/2000/svg">
<path d="M11.9027 5.98096C11.3094 5.98096 10.7293 6.1569 10.236 6.48655C9.74265 6.81619 9.35814 7.28473 9.13107 7.83291C8.90401 8.38109 8.8446 8.98428 8.96036 9.56623C9.07611 10.1482 9.36183 10.6827 9.78139 11.1023C10.2009 11.5218 10.7355 11.8076 11.3174 11.9233C11.8994 12.0391 12.5026 11.9797 13.0508 11.7526C13.5989 11.5255 14.0675 11.141 14.3971 10.6477C14.7268 10.1543 14.9027 9.5743 14.9027 8.98096C14.9018 8.18559 14.5854 7.42305 14.023 6.86064C13.4606 6.29822 12.6981 5.98186 11.9027 5.98096ZM11.9027 10.481C11.606 10.481 11.316 10.393 11.0694 10.2282C10.8227 10.0633 10.6304 9.82907 10.5169 9.55498C10.4034 9.28089 10.3737 8.97929 10.4315 8.68832C10.4894 8.39735 10.6323 8.13008 10.8421 7.9203C11.0518 7.71052 11.3191 7.56766 11.6101 7.50978C11.901 7.4519 12.2026 7.48161 12.4767 7.59514C12.7508 7.70867 12.9851 7.90093 13.1499 8.1476C13.3147 8.39428 13.4027 8.68428 13.4027 8.98096C13.4023 9.37864 13.2441 9.75991 12.9629 10.0411C12.6817 10.3223 12.3004 10.4805 11.9027 10.481Z" fill="#3A98B2"/>
<path d="M17.6675 3.21158C16.2422 1.7866 14.3395 0.940103 12.3267 0.835465C10.314 0.730828 8.33378 1.37547 6.76837 2.64497C5.20295 3.91447 4.16326 5.71883 3.84997 7.70981C3.53668 9.7008 3.972 11.7373 5.0719 13.4262L10.7394 22.1268C10.8655 22.3204 11.038 22.4794 11.2411 22.5895C11.4443 22.6997 11.6717 22.7573 11.9027 22.7573C12.1338 22.7573 12.3612 22.6997 12.5643 22.5895C12.7675 22.4794 12.9399 22.3204 13.0661 22.1268L18.7338 13.4262C19.7543 11.8595 20.2054 9.98955 20.0112 8.12986C19.8171 6.27017 18.9896 4.53373 17.6675 3.21158ZM17.4769 12.6074L11.9028 21.1644L6.32853 12.6074C4.62227 9.98806 4.98823 6.48275 7.19867 4.27222C7.81641 3.65446 8.54978 3.16442 9.35692 2.83009C10.164 2.49576 11.0291 2.32368 11.9028 2.32368C12.7764 2.32368 13.6415 2.49576 14.4486 2.83009C15.2557 3.16442 15.9891 3.65446 16.6069 4.27222C18.8173 6.48275 19.1832 9.98806 17.4769 12.6074Z" fill="#3A98B2"/>
</svg>
