<svg width="24" height="24" viewBox="0 0 24 24" fill="none" xmlns="http://www.w3.org/2000/svg">
<path d="M18.4867 23.6266C18.2625 23.626 18.039 23.6014 17.82 23.5533C13.6511 22.6909 9.81044 20.6689 6.74003 17.72C3.73514 14.7646 1.65109 11.0017 0.740027 6.88664C0.632602 6.37378 0.658968 5.8419 0.81659 5.34218C0.974213 4.84246 1.25779 4.39172 1.64003 4.03331L4.30669 1.46664C4.4429 1.33783 4.60473 1.23919 4.78164 1.17716C4.95854 1.11513 5.14654 1.0911 5.33336 1.10664C5.52707 1.12685 5.714 1.18925 5.88101 1.28945C6.04801 1.38966 6.19104 1.52523 6.30003 1.68664L9.63336 6.61331C9.75836 6.80447 9.8187 7.03071 9.8055 7.25873C9.7923 7.48675 9.70626 7.70451 9.56003 7.87997L7.88669 9.87997C8.55313 11.3549 9.49692 12.688 10.6667 13.8066C11.8289 14.9658 13.2026 15.8914 14.7134 16.5333L16.7867 14.8866C16.9608 14.749 17.1727 14.6677 17.3942 14.6534C17.6157 14.6391 17.8363 14.6925 18.0267 14.8066L23.06 18.06C23.2328 18.1631 23.3799 18.304 23.4905 18.4721C23.601 18.6401 23.6721 18.8311 23.6984 19.0305C23.7247 19.2299 23.7055 19.4328 23.6423 19.6237C23.5791 19.8147 23.4735 19.9889 23.3334 20.1333L20.7334 22.7066C20.438 23.0005 20.0875 23.2331 19.7019 23.391C19.3163 23.5489 18.9033 23.629 18.4867 23.6266ZM5.22669 2.42664L2.56003 4.99331C2.345 5.19367 2.18582 5.44656 2.09815 5.7271C2.01048 6.00763 1.99735 6.30615 2.06003 6.59331C2.90718 10.4547 4.85451 13.9882 7.66669 16.7666C10.5562 19.541 14.1704 21.4429 18.0934 22.2533C18.3903 22.3154 18.698 22.3028 18.9889 22.2167C19.2798 22.1306 19.5447 21.9737 19.76 21.76L22.36 19.1866L17.5 16.0466L15.2734 17.82C15.1881 17.8874 15.0877 17.933 14.9808 17.9528C14.8739 17.9725 14.7638 17.9659 14.66 17.9333C12.8112 17.2521 10.9423 16.2908 9.56003 14.8866C8.13026 13.5515 7.21378 11.7906 6.50669 9.96664C6.47678 9.85622 6.47579 9.73995 6.50381 9.62903C6.53183 9.51812 6.58792 9.41627 6.66669 9.33331L8.46669 7.17997L5.22669 2.42664Z" fill="#3A98B2"/>
</svg>
