<svg width="48" height="29" fill="none" xmlns="http://www.w3.org/2000/svg"><path d="M47.081 19.613c0 1.775-1.432 3.219-3.192 3.219H4.11c-1.76 0-3.191-1.444-3.191-3.219V7.321c0-.57.46-1.034 1.025-1.034h2.124c.652 0 1.025.613 1.025 1.683v9.148c0 .465.94 1.152 1.786 1.152h34.242c.845 0 1.786-.687 1.786-1.152V7.97c0-1.07.373-1.683 1.025-1.683h2.124a1.03 1.03 0 011.025 1.034v12.292zm-3.456 7.81a.836.836 0 01-.651.292.826.826 0 01-.72-.426l-2.012-3.612h3.09l.48 3.074a.837.837 0 01-.187.671zm-37.879-.134a.835.835 0 01-.742.425.823.823 0 01-.629-.292.837.837 0 01-.188-.67l.482-3.075h3.089L5.746 27.29zm.186-23.934c0-1.119.903-2.03 2.013-2.03h7.46c1.11 0 2.013.911 2.013 2.03v9.675H5.932V3.354zm14.338-2.03h7.46c1.11 0 2.013.911 2.013 2.03v9.675H18.257V3.354c0-1.119.903-2.03 2.013-2.03zm12.325 0h7.46c1.11 0 2.013.911 2.013 2.03v9.675H30.582V3.354c0-1.119.903-2.03 2.013-2.03zM5.932 13.875h36.136v3.122c-.134.139-.516.427-.947.427H6.879c-.431 0-.813-.288-.947-.427v-3.122zm40.124-8.433h-2.124a1.68 1.68 0 00-1.025.338V3.355c0-1.586-1.28-2.875-2.852-2.875h-7.46c-1.028 0-1.93.55-2.433 1.376A2.848 2.848 0 0027.73.48h-7.46c-1.027 0-1.93.55-2.432 1.376A2.848 2.848 0 0015.405.48h-7.46c-1.572 0-2.852 1.29-2.852 2.875V5.78a1.68 1.68 0 00-1.025-.338H1.944A1.873 1.873 0 00.08 7.32v12.292c0 2.143 1.654 3.902 3.741 4.052L3.36 26.62c-.077.485.062.978.379 1.352a1.67 1.67 0 001.288.588c.601 0 1.158-.328 1.451-.857l2.243-4.026h30.56l2.242 4.026c.294.529.85.857 1.474.857.488 0 .95-.214 1.266-.588.317-.374.456-.867.38-1.352l-.463-2.955c2.087-.15 3.741-1.909 3.741-4.052V7.321a1.874 1.874 0 00-1.864-1.88z" fill="#3A98B2"/></svg>