<svg width="43" height="35" fill="none" xmlns="http://www.w3.org/2000/svg"><path d="M40.964 3.269l-10.262-1.1c-.56-.06-1.298-.09-2.036-.09s-1.476.03-2.036.09L16.37 3.27c-.183.02-.387.035-.601.048a6.688 6.688 0 00-5.53-2.901 6.69 6.69 0 00-4.885 2.109L2.036 2.17a1.946 1.946 0 00-.216-.012C.8 2.158 0 2.946 0 3.999v27.13c0 1.126.916 2.146 2.036 2.266l10.262 1.1c.56.06 1.297.09 2.035.09.739 0 1.476-.03 2.036-.09l10.262-1.1c.56-.06 1.297-.09 2.036-.09.738 0 1.475.03 2.035.09l10.262 1.1c.074.007.145.01.216.01 1.019 0 1.82-.787 1.82-1.84V5.534c0-1.127-.916-2.146-2.036-2.266zM13.566 33.035a15.152 15.152 0 01-1.104-.067L2.2 31.867c-.342-.037-.664-.396-.664-.74V3.999c0-.193.103-.305.284-.305l.053.003 2.454.263a6.37 6.37 0 00-.744 2.984c0 3.192 4.602 8.354 5.525 9.357l1.13 1.229 1.13-1.229a40.292 40.292 0 002.197-2.617v19.352zM10.239 15.26s-5.12-5.562-5.12-8.317c0-2.759 2.294-4.992 5.12-4.992s5.118 2.234 5.118 4.992c0 2.755-5.118 8.317-5.118 8.317zm17.66 16.521a18.63 18.63 0 00-1.431.086l-10.263 1.1c-.302.032-.687.054-1.103.067V11.5c.994-1.566 1.791-3.23 1.791-4.556a6.37 6.37 0 00-.377-2.146l.017-.001 10.262-1.1c.302-.032.687-.054 1.104-.067v4.99c-2.292 1.33-3.84 3.806-3.84 6.64 0 2.305 2.016 5.523 3.84 7.965v8.555zm-2.304-16.52a6.142 6.142 0 016.143-6.143 6.142 6.142 0 016.143 6.143c0 3.39-6.143 10.237-6.143 10.237s-6.143-6.846-6.143-10.237zm15.869 17.403c0 .194-.104.306-.284.306l-.053-.003-10.261-1.1a18.69 18.69 0 00-1.432-.086v-6.607a46.74 46.74 0 001.16 1.35l1.144 1.273 1.143-1.273c1.091-1.217 6.535-7.476 6.535-11.263 0-4.234-3.444-7.679-7.678-7.679a7.65 7.65 0 00-2.303.355V3.628c.416.014.801.036 1.104.068l10.261 1.1c.341.036.664.395.664.738v27.13z" fill="#3A98B2"/></svg>