<svg width="24" height="24" fill="none" xmlns="http://www.w3.org/2000/svg"><path d="M18.487 23.627a3.185 3.185 0 01-.667-.074A22.607 22.607 0 016.74 17.72a21.807 21.807 0 01-6-10.833 3.053 3.053 0 01.9-2.854l2.667-2.566a1.333 1.333 0 011.026-.36 1.333 1.333 0 01.967.58l3.333 4.926A1.067 1.067 0 019.56 7.88l-1.673 2a12.627 12.627 0 002.78 3.927 12.84 12.84 0 004.046 2.726l2.074-1.646a1.093 1.093 0 011.24-.08l5.033 3.253a1.333 1.333 0 01.273 2.073l-2.6 2.574a3.16 3.16 0 01-2.246.92zm-13.26-21.2L2.56 4.993a1.693 1.693 0 00-.5 1.6 20.466 20.466 0 005.607 10.174 21.266 21.266 0 0010.426 5.486 1.833 1.833 0 001.667-.493l2.6-2.573-4.86-3.14-2.227 1.773a.668.668 0 01-.613.113c-1.849-.68-3.718-1.642-5.1-3.046-1.43-1.335-2.346-3.096-3.053-4.92a.667.667 0 01.16-.634l1.8-2.153-3.24-4.753z" fill="#3A98B2"/></svg>